<svg xmlns="http://www.w3.org/2000/svg" viewBox="0 0 512 512">
  <path fill="#ffffff" d="M256 48C141.1 48 48 141.1 48 256s93.1 208 208 208 208-93.1 208-208S370.9 48 256 48zm0 398.7c-105.1 0-190.7-85.5-190.7-190.7 0-105.1 85.5-190.7 190.7-190.7 105.1 0 190.7 85.5 190.7 190.7 0 105.1-85.6 190.7-190.7 190.7z"/>
  <path fill="#ffffff" d="M256 106c-83.2 0-150 66.8-150 150s66.8 150 150 150 150-66.8 150-150-66.8-150-150-150zm0 270c-66.3 0-120-53.7-120-120s53.7-120 120-120 120 53.7 120 120-53.7 120-120 120z"/>
  <path fill="#ffffff" d="M256 170c-47.2 0-86 38.8-86 86s38.8 86 86 86 86-38.8 86-86-38.8-86-86-86zm0 152c-36.5 0-66-29.5-66-66s29.5-66 66-66 66 29.5 66 66-29.5 66-66 66z"/>
</svg>